<mxfile host="Electron" agent="Mozilla/5.0 (Windows NT 10.0; Win64; x64) AppleWebKit/537.36 (KHTML, like Gecko) draw.io/28.0.6 Chrome/138.0.7204.100 Electron/37.2.3 Safari/537.36" version="28.0.6">
  <diagram name="Página-1" id="EJeYP2r8keFqWKtYUa3q">
    <mxGraphModel dx="1188" dy="701" grid="0" gridSize="10" guides="1" tooltips="1" connect="1" arrows="1" fold="1" page="1" pageScale="1" pageWidth="827" pageHeight="1169" math="0" shadow="0">
      <root>
        <mxCell id="0" />
        <mxCell id="1" parent="0" />
        <mxCell id="VXeBzZSJvtVYYZFOmQI3-1" value="&lt;span style=&quot;color: rgba(0, 0, 0, 0); font-family: monospace; font-size: 0px; text-wrap-mode: nowrap;&quot;&gt;%3CmxGraphModel%3E%3Croot%3E%3CmxCell%20id%3D%220%22%2F%3E%3CmxCell%20id%3D%221%22%20parent%3D%220%22%2F%3E%3CmxCell%20id%3D%222%22%20value%3D%22Crear%20tabla%20din%C3%A1mica%20para%20agrupar%20por%20facultad%20de%20Maestr%C3%ADa%20y%20contabilizar%20aulas%22%20style%3D%22whiteSpace%3Dwrap%3Bhtml%3D1%3Brounded%3D0%3BfontFamily%3DTimes%20New%20Roman%3BfontSize%3D14%3B%22%20vertex%3D%221%22%20parent%3D%221%22%3E%3CmxGeometry%20x%3D%22586.5%22%20y%3D%22691%22%20width%3D%22125%22%20height%3D%2264%22%20as%3D%22geometry%22%2F%3E%3C%2FmxCell%3E%3C%2Froot%3E%3C%2FmxGraphModel%3E&lt;/span&gt;" style="text;whiteSpace=wrap;html=1;" vertex="1" parent="1">
          <mxGeometry x="60" y="40" width="110" height="40" as="geometry" />
        </mxCell>
        <mxCell id="VXeBzZSJvtVYYZFOmQI3-2" value="Revisión y elaboración de estadístico de finalización del ciclo anterior (Histórico) &#xa;Caso Preespecialidad - Estudiantes" style="shape=table;startSize=34;container=1;collapsible=0;childLayout=tableLayout;fixedRows=1;rowLines=0;fontStyle=0;fontSize=14;fontFamily=Times New Roman;" vertex="1" parent="1">
          <mxGeometry x="20" y="20" width="469" height="106" as="geometry" />
        </mxCell>
        <mxCell id="VXeBzZSJvtVYYZFOmQI3-3" value="" style="shape=tableRow;horizontal=0;startSize=0;swimlaneHead=0;swimlaneBody=0;top=0;left=0;bottom=0;right=0;collapsible=0;dropTarget=0;fillColor=none;points=[[0,0.5],[1,0.5]];portConstraint=eastwest;strokeColor=inherit;fontSize=16;fontFamily=Times New Roman;" vertex="1" parent="VXeBzZSJvtVYYZFOmQI3-2">
          <mxGeometry y="34" width="469" height="22" as="geometry" />
        </mxCell>
        <mxCell id="VXeBzZSJvtVYYZFOmQI3-4" value="&lt;font style=&quot;font-size: 14px;&quot;&gt;Detalle&lt;/font&gt;&lt;div&gt;&lt;br&gt;&lt;/div&gt;" style="shape=partialRectangle;html=1;whiteSpace=wrap;connectable=0;fillColor=none;top=0;left=0;bottom=0;right=0;overflow=hidden;pointerEvents=1;strokeColor=inherit;fontSize=16;fontFamily=Times New Roman;" vertex="1" parent="VXeBzZSJvtVYYZFOmQI3-3">
          <mxGeometry width="74" height="22" as="geometry">
            <mxRectangle width="74" height="22" as="alternateBounds" />
          </mxGeometry>
        </mxCell>
        <mxCell id="VXeBzZSJvtVYYZFOmQI3-5" value="&lt;font style=&quot;font-size: 14px;&quot;&gt;Ciclo 01-2025&lt;/font&gt;" style="shape=partialRectangle;html=1;whiteSpace=wrap;connectable=0;fillColor=none;top=0;left=0;bottom=0;right=0;align=left;spacingLeft=6;overflow=hidden;strokeColor=inherit;fontSize=16;fontFamily=Times New Roman;" vertex="1" parent="VXeBzZSJvtVYYZFOmQI3-3">
          <mxGeometry x="74" width="395" height="22" as="geometry">
            <mxRectangle width="395" height="22" as="alternateBounds" />
          </mxGeometry>
        </mxCell>
        <mxCell id="VXeBzZSJvtVYYZFOmQI3-6" value="" style="shape=tableRow;horizontal=0;startSize=0;swimlaneHead=0;swimlaneBody=0;top=0;left=0;bottom=0;right=0;collapsible=0;dropTarget=0;fillColor=none;points=[[0,0.5],[1,0.5]];portConstraint=eastwest;strokeColor=inherit;fontSize=16;fontFamily=Times New Roman;" vertex="1" parent="VXeBzZSJvtVYYZFOmQI3-2">
          <mxGeometry y="56" width="469" height="30" as="geometry" />
        </mxCell>
        <mxCell id="VXeBzZSJvtVYYZFOmQI3-7" value="&lt;font style=&quot;font-size: 14px;&quot;&gt;Encargado&lt;/font&gt;" style="shape=partialRectangle;html=1;whiteSpace=wrap;connectable=0;fillColor=none;top=0;left=0;bottom=0;right=0;overflow=hidden;strokeColor=inherit;fontSize=16;fontFamily=Times New Roman;" vertex="1" parent="VXeBzZSJvtVYYZFOmQI3-6">
          <mxGeometry width="74" height="30" as="geometry">
            <mxRectangle width="74" height="30" as="alternateBounds" />
          </mxGeometry>
        </mxCell>
        <mxCell id="VXeBzZSJvtVYYZFOmQI3-8" value="&lt;font style=&quot;font-size: 14px;&quot;&gt;Juan Santos&lt;/font&gt;" style="shape=partialRectangle;html=1;whiteSpace=wrap;connectable=0;fillColor=none;top=0;left=0;bottom=0;right=0;align=left;spacingLeft=6;overflow=hidden;strokeColor=inherit;fontSize=16;fontFamily=Times New Roman;" vertex="1" parent="VXeBzZSJvtVYYZFOmQI3-6">
          <mxGeometry x="74" width="395" height="30" as="geometry">
            <mxRectangle width="395" height="30" as="alternateBounds" />
          </mxGeometry>
        </mxCell>
        <mxCell id="VXeBzZSJvtVYYZFOmQI3-9" value="" style="shape=tableRow;horizontal=0;startSize=0;swimlaneHead=0;swimlaneBody=0;top=0;left=0;bottom=0;right=0;collapsible=0;dropTarget=0;fillColor=none;points=[[0,0.5],[1,0.5]];portConstraint=eastwest;strokeColor=inherit;fontSize=16;fontFamily=Times New Roman;" vertex="1" parent="VXeBzZSJvtVYYZFOmQI3-2">
          <mxGeometry y="86" width="469" height="20" as="geometry" />
        </mxCell>
        <mxCell id="VXeBzZSJvtVYYZFOmQI3-10" value="" style="shape=partialRectangle;html=1;whiteSpace=wrap;connectable=0;fillColor=none;top=0;left=0;bottom=0;right=0;overflow=hidden;strokeColor=inherit;fontSize=16;fontFamily=Times New Roman;" vertex="1" parent="VXeBzZSJvtVYYZFOmQI3-9">
          <mxGeometry width="74" height="20" as="geometry">
            <mxRectangle width="74" height="20" as="alternateBounds" />
          </mxGeometry>
        </mxCell>
        <mxCell id="VXeBzZSJvtVYYZFOmQI3-11" value="" style="shape=partialRectangle;html=1;whiteSpace=wrap;connectable=0;fillColor=none;top=0;left=0;bottom=0;right=0;align=left;spacingLeft=6;overflow=hidden;strokeColor=inherit;fontSize=16;fontFamily=Times New Roman;" vertex="1" parent="VXeBzZSJvtVYYZFOmQI3-9">
          <mxGeometry x="74" width="395" height="20" as="geometry">
            <mxRectangle width="395" height="20" as="alternateBounds" />
          </mxGeometry>
        </mxCell>
        <mxCell id="VXeBzZSJvtVYYZFOmQI3-12" value="" style="edgeStyle=orthogonalEdgeStyle;rounded=0;orthogonalLoop=1;jettySize=auto;html=1;fontSize=14;" edge="1" parent="1" source="VXeBzZSJvtVYYZFOmQI3-13" target="VXeBzZSJvtVYYZFOmQI3-15">
          <mxGeometry relative="1" as="geometry" />
        </mxCell>
        <mxCell id="VXeBzZSJvtVYYZFOmQI3-13" value="&lt;font face=&quot;Times New Roman&quot;&gt;Revisión y elaboración de estadístico de finalización del ciclo anterior&lt;/font&gt;" style="rounded=0;whiteSpace=wrap;html=1;fillColor=#dae8fc;strokeColor=#6c8ebf;fontSize=14;" vertex="1" parent="1">
          <mxGeometry x="312" y="248" width="193" height="55" as="geometry" />
        </mxCell>
        <mxCell id="VXeBzZSJvtVYYZFOmQI3-46" value="" style="edgeStyle=orthogonalEdgeStyle;rounded=0;orthogonalLoop=1;jettySize=auto;html=1;" edge="1" parent="1" source="VXeBzZSJvtVYYZFOmQI3-15" target="VXeBzZSJvtVYYZFOmQI3-45">
          <mxGeometry relative="1" as="geometry" />
        </mxCell>
        <mxCell id="VXeBzZSJvtVYYZFOmQI3-15" value="&lt;font style=&quot;background-color: light-dark(#ffffff, var(--ge-dark-color, #121212));&quot; face=&quot;Times New Roman&quot;&gt;Ingresar al portal empresarial desde la URL:&amp;nbsp;&lt;span style=&quot;text-align: start;&quot;&gt;https://portalempresarial.utec.edu.sv/uonline/&lt;/span&gt;&lt;/font&gt;" style="whiteSpace=wrap;html=1;rounded=0;fontSize=14;" vertex="1" parent="1">
          <mxGeometry x="258.06" y="337" width="300.88" height="38" as="geometry" />
        </mxCell>
        <mxCell id="VXeBzZSJvtVYYZFOmQI3-39" value="" style="edgeStyle=orthogonalEdgeStyle;rounded=0;orthogonalLoop=1;jettySize=auto;html=1;" edge="1" parent="1" source="VXeBzZSJvtVYYZFOmQI3-33">
          <mxGeometry relative="1" as="geometry">
            <mxPoint x="176" y="594" as="targetPoint" />
          </mxGeometry>
        </mxCell>
        <mxCell id="VXeBzZSJvtVYYZFOmQI3-33" value="&lt;font face=&quot;Times New Roman&quot;&gt;Virtual o Presencial?&lt;/font&gt;" style="rhombus;whiteSpace=wrap;html=1;fontSize=14;rounded=0;" vertex="1" parent="1">
          <mxGeometry x="337.5" y="509" width="142" height="80" as="geometry" />
        </mxCell>
        <mxCell id="VXeBzZSJvtVYYZFOmQI3-37" value="&lt;font face=&quot;Times New Roman&quot;&gt;Presencial&lt;/font&gt;" style="text;html=1;align=center;verticalAlign=middle;resizable=0;points=[];autosize=1;strokeColor=none;fillColor=none;" vertex="1" parent="1">
          <mxGeometry x="454" y="553" width="67" height="26" as="geometry" />
        </mxCell>
        <mxCell id="VXeBzZSJvtVYYZFOmQI3-49" value="" style="edgeStyle=orthogonalEdgeStyle;rounded=0;orthogonalLoop=1;jettySize=auto;html=1;" edge="1" parent="1" source="VXeBzZSJvtVYYZFOmQI3-38" target="VXeBzZSJvtVYYZFOmQI3-48">
          <mxGeometry relative="1" as="geometry" />
        </mxCell>
        <mxCell id="VXeBzZSJvtVYYZFOmQI3-38" value="&lt;span style=&quot;font-family: &amp;quot;Times New Roman&amp;quot;;&quot;&gt;Registro academico/Educación virtual/Generar datos preespeciliad virtual/Seleccionar ciclo/Seleccionar tipo/Seleccionar modulo/Generar Excel&lt;/span&gt;" style="whiteSpace=wrap;html=1;fontSize=14;rounded=0;" vertex="1" parent="1">
          <mxGeometry x="41.5" y="595" width="296" height="68" as="geometry" />
        </mxCell>
        <mxCell id="VXeBzZSJvtVYYZFOmQI3-40" value="&lt;font face=&quot;Times New Roman&quot;&gt;Virtual&lt;/font&gt;" style="text;html=1;align=center;verticalAlign=middle;resizable=0;points=[];autosize=1;strokeColor=none;fillColor=none;" vertex="1" parent="1">
          <mxGeometry x="292" y="553" width="51" height="26" as="geometry" />
        </mxCell>
        <mxCell id="VXeBzZSJvtVYYZFOmQI3-51" value="" style="edgeStyle=orthogonalEdgeStyle;rounded=0;orthogonalLoop=1;jettySize=auto;html=1;" edge="1" parent="1" source="VXeBzZSJvtVYYZFOmQI3-41" target="VXeBzZSJvtVYYZFOmQI3-50">
          <mxGeometry relative="1" as="geometry" />
        </mxCell>
        <mxCell id="VXeBzZSJvtVYYZFOmQI3-41" value="&lt;span style=&quot;font-family: &amp;quot;Times New Roman&amp;quot;;&quot;&gt;Registro academico/Educación virtual/Migración Preespecialidad/Seleccionar ciclo/Seleccionar módulo/Seleccionar tipo/CSV&lt;/span&gt;" style="whiteSpace=wrap;html=1;fontSize=14;rounded=0;" vertex="1" parent="1">
          <mxGeometry x="505" y="595" width="296" height="68" as="geometry" />
        </mxCell>
        <mxCell id="VXeBzZSJvtVYYZFOmQI3-42" style="edgeStyle=orthogonalEdgeStyle;rounded=0;orthogonalLoop=1;jettySize=auto;html=1;exitX=1;exitY=0.5;exitDx=0;exitDy=0;entryX=0.483;entryY=0;entryDx=0;entryDy=0;entryPerimeter=0;" edge="1" parent="1" source="VXeBzZSJvtVYYZFOmQI3-33">
          <mxGeometry relative="1" as="geometry">
            <mxPoint x="637.9680000000001" y="594" as="targetPoint" />
          </mxGeometry>
        </mxCell>
        <mxCell id="VXeBzZSJvtVYYZFOmQI3-47" value="" style="edgeStyle=orthogonalEdgeStyle;rounded=0;orthogonalLoop=1;jettySize=auto;html=1;" edge="1" parent="1" source="VXeBzZSJvtVYYZFOmQI3-45" target="VXeBzZSJvtVYYZFOmQI3-33">
          <mxGeometry relative="1" as="geometry" />
        </mxCell>
        <mxCell id="VXeBzZSJvtVYYZFOmQI3-45" value="&lt;font face=&quot;Times New Roman&quot;&gt;Descargar la data correspondiente al ciclo o año solicitado desde el portal empresarial&lt;/font&gt;" style="whiteSpace=wrap;html=1;fontSize=14;rounded=0;" vertex="1" parent="1">
          <mxGeometry x="300.06" y="410" width="216.88" height="60" as="geometry" />
        </mxCell>
        <mxCell id="VXeBzZSJvtVYYZFOmQI3-48" value="&lt;font face=&quot;Times New Roman&quot;&gt;Crear un archivo de excel con todo el consolidado de los módulos 1 al 7&lt;/font&gt;" style="whiteSpace=wrap;html=1;fontSize=14;rounded=0;" vertex="1" parent="1">
          <mxGeometry x="107.75" y="704" width="163.5" height="60" as="geometry" />
        </mxCell>
        <mxCell id="VXeBzZSJvtVYYZFOmQI3-50" value="&lt;span style=&quot;font-family: &amp;quot;Times New Roman&amp;quot;;&quot;&gt;Crear un archivo de excel con todo el consolidado de los módulos 1 al 7&lt;/span&gt;" style="whiteSpace=wrap;html=1;fontSize=14;rounded=0;" vertex="1" parent="1">
          <mxGeometry x="572" y="704" width="162" height="60" as="geometry" />
        </mxCell>
        <mxCell id="VXeBzZSJvtVYYZFOmQI3-52" value="" style="endArrow=none;html=1;rounded=0;" edge="1" parent="1">
          <mxGeometry width="50" height="50" relative="1" as="geometry">
            <mxPoint x="189" y="798" as="sourcePoint" />
            <mxPoint x="189.33" y="764" as="targetPoint" />
          </mxGeometry>
        </mxCell>
        <mxCell id="VXeBzZSJvtVYYZFOmQI3-53" value="" style="endArrow=none;html=1;rounded=0;" edge="1" parent="1">
          <mxGeometry width="50" height="50" relative="1" as="geometry">
            <mxPoint x="652.83" y="798" as="sourcePoint" />
            <mxPoint x="653.1600000000001" y="764" as="targetPoint" />
          </mxGeometry>
        </mxCell>
        <mxCell id="VXeBzZSJvtVYYZFOmQI3-54" value="" style="endArrow=none;html=1;rounded=0;" edge="1" parent="1">
          <mxGeometry width="50" height="50" relative="1" as="geometry">
            <mxPoint x="189" y="798" as="sourcePoint" />
            <mxPoint x="652" y="798" as="targetPoint" />
          </mxGeometry>
        </mxCell>
        <mxCell id="VXeBzZSJvtVYYZFOmQI3-62" value="" style="edgeStyle=orthogonalEdgeStyle;rounded=0;orthogonalLoop=1;jettySize=auto;html=1;" edge="1" parent="1" source="VXeBzZSJvtVYYZFOmQI3-56" target="VXeBzZSJvtVYYZFOmQI3-61">
          <mxGeometry relative="1" as="geometry" />
        </mxCell>
        <mxCell id="VXeBzZSJvtVYYZFOmQI3-56" value="&lt;font face=&quot;Times New Roman&quot;&gt;Crear una tabla dinámica para agrupar por especialidad de modulo y contabilizar de ambar consolidados&lt;/font&gt;" style="rounded=0;whiteSpace=wrap;html=1;" vertex="1" parent="1">
          <mxGeometry x="317.22" y="837" width="182.56" height="52" as="geometry" />
        </mxCell>
        <mxCell id="VXeBzZSJvtVYYZFOmQI3-60" value="" style="endArrow=classic;html=1;rounded=0;entryX=0.5;entryY=0;entryDx=0;entryDy=0;" edge="1" parent="1" target="VXeBzZSJvtVYYZFOmQI3-56">
          <mxGeometry width="50" height="50" relative="1" as="geometry">
            <mxPoint x="409" y="799" as="sourcePoint" />
            <mxPoint x="410" y="843" as="targetPoint" />
          </mxGeometry>
        </mxCell>
        <mxCell id="VXeBzZSJvtVYYZFOmQI3-61" value="&lt;font face=&quot;Times New Roman&quot;&gt;Trasladar datos obtenidos al documento de Excel con el histórico según carrera&lt;/font&gt;" style="whiteSpace=wrap;html=1;rounded=0;" vertex="1" parent="1">
          <mxGeometry x="330.25" y="931" width="156.5" height="47" as="geometry" />
        </mxCell>
      </root>
    </mxGraphModel>
  </diagram>
</mxfile>
